<svg width="50" height="46" viewBox="0 0 50 46" fill="none" xmlns="http://www.w3.org/2000/svg">
<path d="M49.7567 11.9321L38.1041 0.244427C37.948 0.0879207 37.7364 0 37.5157 0C37.2949 0 37.0833 0.0879207 36.9272 0.244427L34.6741 2.50432H29.5644C28.1322 2.50092 26.7136 2.78293 25.3909 3.33397C24.0682 3.885 22.8679 4.69409 21.8595 5.71424L13.2741 14.7246C12.7992 15.224 12.5242 15.8813 12.5015 16.571C12.4789 17.2608 12.7102 17.9348 13.1513 18.4644C13.5924 18.9941 14.2125 19.3423 14.8932 19.4428C15.574 19.5432 16.2678 19.3888 16.8423 19.0089L26.2792 12.7527C27.8069 14.2286 29.8522 15.0421 31.9732 15.0176C33.5716 15.0808 35.1509 14.6504 36.4977 13.7846L45.1206 22.7273C45.1206 22.7273 46.6621 19.0098 46.6621 16.2156L49.7567 13.1117C49.9125 12.9552 50 12.743 50 12.5219C50 12.3007 49.9125 12.0886 49.7567 11.9321Z" fill="#A6CF4C"/>
<path d="M45.4681 25.6609L36.9823 16.908L35.8668 15.7261C34.575 16.3124 33.1733 16.6151 31.7556 16.6138C29.6808 16.631 27.6544 15.985 25.9697 14.7694L17.6115 20.3116C16.7568 20.8771 15.734 21.1294 14.7155 21.0262C13.6969 20.9229 12.7451 20.4703 12.0203 19.7447C11.2052 18.9177 10.7422 17.8052 10.7292 16.642C10.7163 15.4788 11.1543 14.3562 11.9508 13.5111L20.4928 4.54042C21.005 4.03095 21.5591 3.56579 22.1492 3.1499C20.7941 2.72178 19.3825 2.50044 17.9619 2.49329H15.2503L13.0084 0.243351C12.8531 0.0875335 12.6425 0 12.4228 0C12.2032 0 11.9926 0.0875335 11.8373 0.243351L0.242486 11.8795C0.0872223 12.0354 0 12.2467 0 12.4671C0 12.6875 0.0872223 12.8989 0.242486 13.0548L3.2588 16.0818C2.94519 18.4135 3.18179 20.7864 3.94952 23.0095C4.72243 22.5996 5.57981 22.3759 6.45377 22.3561C7.32774 22.3363 8.1943 22.521 8.98484 22.8955C9.77538 23.27 10.4682 23.8241 11.0084 24.5138C11.5487 25.2035 11.9215 26.01 12.0974 26.8694C13.253 27.0645 14.3204 27.613 15.1538 28.4398C15.9871 29.2666 16.5458 30.3315 16.7535 31.4889C17.7895 31.6733 18.7536 32.1445 19.5369 32.8495C20.3202 33.5544 20.8917 34.465 21.1869 35.4785C22.191 35.5483 23.159 35.8831 23.9928 36.449C24.8266 37.0148 25.4967 37.7916 25.9353 38.7009C26.3739 39.6101 26.5654 40.6194 26.4904 41.6268C26.4155 42.6341 26.0767 43.6037 25.5084 44.4375C26.0775 44.9438 26.7778 45.278 27.5283 45.4014C28.2788 45.5248 29.0488 45.4323 29.7491 45.1347C30.4494 44.8371 31.0513 44.3465 31.4853 43.7198C31.9193 43.093 32.1674 42.3557 32.2011 41.5933C32.8223 41.8586 33.4997 41.9636 34.1716 41.8988C34.8436 41.8339 35.4886 41.6013 36.048 41.2221C36.6074 40.8428 37.0632 40.3291 37.374 39.7277C37.6847 39.1263 37.8405 38.4564 37.8271 37.7791C38.5552 38.0036 39.3315 38.0177 40.0672 37.8199C40.8029 37.622 41.4682 37.2202 41.9868 36.6604C42.5054 36.1007 42.8564 35.4056 42.9996 34.6548C43.1428 33.9041 43.0723 33.1281 42.7963 32.4157C43.3211 32.3958 43.8367 32.2706 44.3125 32.0475C44.7883 31.8244 45.2148 31.5078 45.5667 31.1166C46.2427 30.3642 46.6086 29.3821 46.5903 28.3692C46.572 27.3563 46.1708 26.3882 45.4681 25.6609Z" fill="#A6CF4C"/>
<path d="M23.8127 38.0989C23.4367 37.7213 22.9893 37.4219 22.4966 37.2182C22.0039 37.0144 21.4756 36.9102 20.9422 36.9118C20.5954 36.9168 20.2507 36.966 19.9164 37.0582C19.9441 36.4649 19.8396 35.8728 19.6104 35.3247C19.3812 34.7765 19.033 34.286 18.5908 33.8886C18.1487 33.4911 17.6237 33.1966 17.0538 33.0262C16.4838 32.8559 15.8831 32.814 15.295 32.9035C15.389 32.2756 15.3334 31.6344 15.1326 31.032C14.9319 30.4296 14.5917 29.8829 14.1396 29.4364C13.6875 28.9899 13.1363 28.6561 12.5307 28.4622C11.9252 28.2683 11.2824 28.2197 10.6545 28.3203C10.6827 28.1432 10.6985 27.9643 10.7017 27.785C10.6974 27.2558 10.5864 26.7327 10.3753 26.2472C10.1641 25.7617 9.85721 25.3236 9.47282 24.959C8.71427 24.2398 7.70318 23.8467 6.65721 23.8643C5.61123 23.882 4.61402 24.3089 3.88023 25.0533L3.39796 25.5497C2.85901 26.1028 2.49336 26.8009 2.34579 27.5584C2.19823 28.3158 2.27515 29.0998 2.56715 29.8143C2.85915 30.5288 3.35353 31.1427 3.98975 31.5809C4.62597 32.0191 5.37639 32.2625 6.14909 32.2814H6.24936C6.31648 32.2814 6.38028 32.2657 6.44658 32.2624C6.27212 32.9573 6.28663 33.6861 6.48861 34.3736C6.69059 35.0611 7.07272 35.6823 7.59554 36.173C8.11835 36.6638 8.76291 37.0063 9.46264 37.1653C10.1624 37.3242 10.8919 37.2938 11.5759 37.0772C11.5759 37.0995 11.5693 37.1202 11.5693 37.1426C11.5693 38.2177 11.9971 39.2488 12.7586 40.009C13.5201 40.7692 14.5528 41.1963 15.6297 41.1963C15.9134 41.1951 16.1961 41.1643 16.4733 41.1045C16.4658 41.2038 16.4443 41.3005 16.4443 41.4015C16.4444 42.2032 16.6826 42.9869 17.1288 43.6535C17.5751 44.32 18.2093 44.8395 18.9512 45.1462C19.6931 45.453 20.5095 45.5332 21.2971 45.3767C22.0847 45.2203 22.8082 44.8342 23.376 44.2672L23.811 43.8329C24.5721 43.0723 24.9997 42.0413 25 40.9662C25.0003 39.8912 24.5733 38.8599 23.8127 38.0989Z" fill="#A6CF4C"/>
</svg>
