<svg width="34" height="50" viewBox="0 0 34 50" fill="none" xmlns="http://www.w3.org/2000/svg">
<path d="M33.871 17.8743C33.7578 17.5125 33.5765 17.206 33.3485 16.9911C33.1205 16.7761 32.8554 16.6618 32.5845 16.6616H17.3989L19.7905 2.58037C19.8663 2.1259 19.836 1.64712 19.7042 1.22114C19.5725 0.795157 19.3471 0.446783 19.0644 0.232134C18.7816 0.0174857 18.458 -0.0509403 18.1456 0.0378789C17.8332 0.126698 17.5502 0.367591 17.3422 0.721754L0.340137 29.8928C0.164241 30.1952 0.0509158 30.5654 0.0135632 30.9596C-0.0237895 31.3537 0.0163931 31.7554 0.129359 32.117C0.242325 32.4786 0.423348 32.7851 0.651021 33.0002C0.878694 33.2153 1.14349 33.3301 1.4141 33.3308H16.5998L14.2081 47.4121C14.1312 47.8674 14.1609 48.3475 14.2926 48.7748C14.4242 49.2021 14.6501 49.5516 14.9336 49.7666C15.1337 49.9209 15.3565 50.001 15.5825 50C15.7866 49.9994 15.9883 49.9339 16.1737 49.8081C16.3591 49.6822 16.5237 49.4989 16.6564 49.2707L33.6585 20.0997C33.8348 19.7974 33.9486 19.4271 33.9862 19.0327C34.0239 18.6383 33.9839 18.2363 33.871 17.8743Z" fill="#A6CF4C"/>
</svg>
