<svg width="88" height="52" viewBox="0 0 88 52" fill="none" xmlns="http://www.w3.org/2000/svg">
<path d="M50.8037 22.074L43.6538 21.554C43.2162 19.8151 42.5241 18.1505 41.5998 16.614L46.2797 11.206C46.5085 10.9686 46.6363 10.6517 46.6363 10.322C46.6363 9.99229 46.5085 9.67542 46.2797 9.438L42.5878 5.772C42.3474 5.54906 42.0317 5.42518 41.7038 5.42518C41.3759 5.42518 41.0602 5.54906 40.8198 5.772L35.3599 10.4C33.8255 9.47157 32.1602 8.77916 30.4199 8.346L29.8999 1.19601C29.8738 0.869558 29.7253 0.565026 29.4843 0.343291C29.2433 0.121556 28.9275 -0.00104286 28.6 6.68336e-06H23.4C23.0725 -0.00104286 22.7567 0.121556 22.5157 0.343291C22.2747 0.565026 22.1263 0.869558 22.1001 1.19601L21.5801 8.346C19.8398 8.77916 18.1745 9.47157 16.6401 10.4L11.2322 5.69401C10.9891 5.47656 10.6744 5.35635 10.3482 5.35635C10.022 5.35635 9.70733 5.47656 9.46422 5.69401L5.77227 9.38601C5.55483 9.62912 5.43462 9.94384 5.43462 10.27C5.43462 10.5962 5.55483 10.9109 5.77227 11.154L10.4002 16.614C9.47179 18.1484 8.77939 19.8137 8.34624 21.554L1.19633 22.074C0.865349 22.1005 0.557043 22.2526 0.334654 22.4992C0.112264 22.7457 -0.00734809 23.068 0.000349773 23.4V28.6C-0.000699755 28.9275 0.121897 29.2433 0.343629 29.4843C0.565361 29.7254 0.869887 29.8738 1.19633 29.9L8.34624 30.42C8.77939 32.1603 9.47179 33.8256 10.4002 35.36L5.72027 40.794C5.50283 41.0371 5.38262 41.3518 5.38262 41.678C5.38262 42.0042 5.50283 42.3189 5.72027 42.562L9.41223 46.254C9.65533 46.4714 9.97005 46.5916 10.2962 46.5916C10.6224 46.5916 10.9371 46.4714 11.1802 46.254L16.6401 41.6C18.1799 42.5176 19.8436 43.2094 21.5801 43.654L22.1001 50.804C22.1263 51.1304 22.2747 51.435 22.5157 51.6567C22.7567 51.8784 23.0725 52.001 23.4 52H28.6C28.9275 52.001 29.2433 51.8784 29.4843 51.6567C29.7253 51.435 29.8738 51.1304 29.8999 50.804L30.4199 43.654C32.1564 43.2094 33.8201 42.5176 35.3599 41.6L40.7678 46.28C41.0052 46.5088 41.3221 46.6366 41.6518 46.6366C41.9815 46.6366 42.2984 46.5088 42.5358 46.28L46.2277 42.614C46.4452 42.3709 46.5654 42.0562 46.5654 41.73C46.5654 41.4038 46.4452 41.0891 46.2277 40.846L41.5998 35.334C42.5199 33.7984 43.2035 32.1331 43.6278 30.394L50.7777 29.874C51.1043 29.8544 51.4115 29.7124 51.6381 29.4762C51.8646 29.2401 51.9937 28.9272 51.9997 28.6V23.4C52.0074 23.068 51.8877 22.7457 51.6653 22.4992C51.443 22.2526 51.1347 22.1005 50.8037 22.074ZM26 33.8C24.4573 33.8 22.9493 33.3425 21.6666 32.4855C20.3839 31.6284 19.3842 30.4102 18.7938 28.9849C18.2035 27.5597 18.049 25.9913 18.35 24.4783C18.6509 22.9652 19.3938 21.5754 20.4846 20.4846C21.5755 19.3937 22.9653 18.6508 24.4783 18.3499C25.9913 18.0489 27.5596 18.2034 28.9849 18.7937C30.4101 19.3841 31.6283 20.3839 32.4854 21.6666C33.3424 22.9493 33.7999 24.4573 33.7999 26C33.7999 28.0687 32.9781 30.0526 31.5154 31.5154C30.0526 32.9782 28.0687 33.8 26 33.8Z" fill="#A6CF4C"/>
<path d="M86.8686 25.4543L82.4459 24.8886C82.1337 23.6687 81.6489 22.4998 81.006 21.4171L83.7573 17.8943C83.9634 17.6596 84.0771 17.358 84.0771 17.0457C84.0771 16.7334 83.9634 16.4318 83.7573 16.1971L81.9317 14.3714C81.6996 14.16 81.397 14.0428 81.0831 14.0428C80.7692 14.0428 80.4666 14.16 80.2346 14.3714L76.6861 17.1229C75.6125 16.4803 74.4521 15.9953 73.2406 15.6829L72.572 11.1314C72.5289 10.8201 72.3754 10.5345 72.1394 10.3269C71.9034 10.1192 71.6007 10.0032 71.2863 10H68.715C68.4007 10.0032 68.098 10.1192 67.862 10.3269C67.626 10.5345 67.4725 10.8201 67.4294 11.1314L66.8637 15.5543C65.6521 15.8668 64.4917 16.3517 63.4181 16.9943L59.8696 14.2429C59.635 14.0367 59.3334 13.9231 59.0211 13.9231C58.7088 13.9231 58.4072 14.0367 58.1726 14.2429L56.3469 16.0686C56.1408 16.3032 56.0271 16.6048 56.0271 16.9171C56.0271 17.2294 56.1408 17.5311 56.3469 17.7657L59.0982 21.2886C58.4554 22.3712 57.9705 23.5402 57.6583 24.76L53.107 25.4543C52.7934 25.4868 52.5041 25.6381 52.2985 25.8772C52.0928 26.1163 51.9865 26.425 52.0014 26.74V29.3114C51.9926 29.6249 52.1011 29.9303 52.3055 30.1681C52.51 30.4059 52.7958 30.5588 53.107 30.5971L57.5554 31.1371C57.8628 32.3585 58.348 33.5282 58.9954 34.6085L56.2441 38.1571C56.0379 38.3917 55.9243 38.6934 55.9243 39.0057C55.9243 39.318 56.0379 39.6196 56.2441 39.8542L58.0697 41.68C58.3067 41.8811 58.6074 41.9915 58.9182 41.9915C59.2291 41.9915 59.5298 41.8811 59.7668 41.68L63.3152 38.9285C64.3865 39.5757 65.5476 40.0609 66.7608 40.3685L67.4294 44.8685C67.4672 45.1821 67.6193 45.4708 67.8564 45.6795C68.0935 45.8882 68.3992 46.0022 68.715 46H71.2863C71.6022 46.0022 71.9079 45.8882 72.145 45.6795C72.3821 45.4708 72.5341 45.1821 72.572 44.8685L73.112 40.4457C74.3334 40.1383 75.503 39.6531 76.5833 39.0057L80.1317 41.7571C80.3638 41.9685 80.6664 42.0857 80.9803 42.0857C81.2942 42.0857 81.5968 41.9685 81.8288 41.7571L83.6287 39.9314C83.8401 39.6993 83.9573 39.3967 83.9573 39.0828C83.9573 38.7689 83.8401 38.4663 83.6287 38.2343L80.8774 34.6857C81.5431 33.6208 82.0377 32.4581 82.3431 31.24L86.8686 30.5971C87.18 30.554 87.4655 30.4004 87.6732 30.1645C87.8808 29.9285 87.9968 29.6257 88 29.3114V26.74C87.9968 26.4256 87.8808 26.1229 87.6732 25.8869C87.4655 25.6509 87.18 25.4974 86.8686 25.4543ZM70.0007 33.1685C68.9836 33.1685 67.9893 32.8669 67.1436 32.3018C66.2979 31.7367 65.6387 30.9335 65.2495 29.9938C64.8602 29.054 64.7584 28.02 64.9568 27.0224C65.1553 26.0248 65.6451 25.1084 66.3643 24.3892C67.0835 23.6699 67.9998 23.1801 68.9974 22.9817C69.995 22.7832 71.029 22.8851 71.9687 23.2743C72.9084 23.6636 73.7116 24.3227 74.2767 25.1685C74.8417 26.0142 75.1433 27.0085 75.1433 28.0257C75.1433 29.3897 74.6015 30.6978 73.6371 31.6622C72.6727 32.6267 71.3646 33.1685 70.0007 33.1685Z" fill="#A6CF4C"/>
</svg>
