<svg width="50" height="47" viewBox="0 0 50 47" fill="none" xmlns="http://www.w3.org/2000/svg">
<path d="M24.8545 0C11.1489 0 0 10.5423 0 23.5C0 36.4577 11.1489 47 24.8545 47C38.5601 47 49.7089 36.4577 49.7089 23.5C49.7089 10.5423 38.5601 0 24.8545 0ZM28.3772 19.7659C29.1527 19.7623 29.7832 20.39 29.7832 21.1655C29.7832 21.9385 29.1566 22.5651 28.3836 22.5651H21.5559C20.9007 22.5651 20.3533 22.9989 20.3568 23.6541C20.3603 24.3268 20.9259 24.9263 21.5987 24.9263H27.0615C27.8008 24.9263 28.4 25.5256 28.4 26.2648C28.4 27.004 27.8008 27.6033 27.0615 27.6033H25.0001C22.8144 27.6033 21.1093 29.8236 22.7005 31.3221C23.9318 32.4816 25.655 33.0614 27.8705 33.0614C28.9962 33.0614 30.1384 32.9304 31.297 32.6684C32.4438 32.4091 33.6184 33.2246 33.6184 34.4003C33.6184 35.083 33.2103 35.7083 32.5586 35.9116C31.0973 36.3675 29.4565 36.5946 27.6349 36.5946C24.4827 36.5946 21.9227 35.8252 19.9549 34.2855C18.3049 32.9951 17.1345 31.2226 16.4451 28.966C16.2058 28.183 15.5118 27.6033 14.693 27.6033H14.306C13.5668 27.6033 12.9675 27.004 12.9675 26.2648C12.9675 25.5256 13.5668 24.9263 14.306 24.9263H14.6014C15.2393 24.9263 15.7355 24.4849 15.7312 23.847C15.727 23.2099 15.2408 22.5651 14.6038 22.5651H14.322C13.574 22.5651 12.9675 21.9587 12.9675 21.2106V21.1715C12.9675 20.3947 13.6028 19.7678 14.3795 19.7781L14.6442 19.7816C15.4594 19.7923 16.1492 19.2038 16.3638 18.4173C16.9852 16.1399 18.1331 14.3038 19.8068 12.9076C21.8082 11.2402 24.3909 10.4064 27.5571 10.4064C29.464 10.4064 31.2255 10.6791 32.8408 11.2249C33.8252 11.5576 34.1998 12.7011 33.7324 13.6292C33.2838 14.5197 32.2204 14.8899 31.2753 14.572C29.9215 14.1164 28.6821 13.8885 27.5571 13.8885C25.7125 13.8885 24.205 14.3779 23.0347 15.3578C23.0012 15.3858 22.968 15.4142 22.9351 15.4431C20.9958 17.1452 23.1019 19.7902 25.6823 19.7783L28.3772 19.7659Z" fill="#587C2E"/>
</svg>
