<svg width="44" height="49" viewBox="0 0 44 49" fill="none" xmlns="http://www.w3.org/2000/svg">
<path d="M22 0C16.3144 0 10.8617 2.25859 6.8414 6.2789C2.82109 10.2992 0.5625 15.7519 0.5625 21.4375C0.5625 36.75 22 49 22 49C22 49 43.4375 36.75 43.4375 21.4375C43.4375 15.7519 41.1789 10.2992 37.1586 6.2789C33.1383 2.25859 27.6856 0 22 0ZM31.0068 22.1112L22 31.0109L12.9932 22.1112L12.9289 22.05C12.401 21.5137 11.9839 20.8787 11.7015 20.1812C11.419 19.4837 11.2767 18.7375 11.2827 17.985C11.2887 17.2325 11.4428 16.4886 11.7363 15.7957C12.0298 15.1028 12.4569 14.4745 12.9932 13.9466C13.2482 13.6961 13.5249 13.4685 13.8201 13.2667C14.4603 12.8327 15.1798 12.5291 15.9374 12.3731C16.695 12.2172 17.4759 12.212 18.2355 12.3579C18.9951 12.5038 19.7185 12.7979 20.3644 13.2234C21.0103 13.6489 21.5661 14.1975 22 14.8378C22.1997 14.5438 22.4252 14.2681 22.6737 14.014C23.2163 13.4622 23.8622 13.0226 24.5745 12.7204C25.2869 12.4183 26.0519 12.2594 26.8257 12.2528C27.5995 12.2463 28.367 12.3922 29.0844 12.6823C29.8018 12.9724 30.4551 13.401 31.0068 13.9436L31.0711 14.0079C31.599 14.5442 32.0161 15.1792 32.2985 15.8766C32.581 16.5741 32.7233 17.3204 32.7173 18.0729C32.7113 18.8254 32.5572 19.5693 32.2637 20.2622C31.9702 20.9551 31.5431 21.5834 31.0068 22.1112Z" fill="#A6CF4C"/>
</svg>
