<svg width="385" height="284" viewBox="0 0 385 284" fill="none" xmlns="http://www.w3.org/2000/svg">
<path d="M33.4361 18.3022V98.6911C33.4361 105.352 37.2518 109.362 42.749 109.362C48.3756 109.362 52.062 105.352 52.062 98.6911V18.3022H67.1308V100.308C67.1308 113.631 56.0717 124.366 42.749 124.366C29.7497 124.366 18.3672 113.566 18.3672 100.114V18.3022H33.4361Z" fill="#ADB786"/>
<path d="M116.671 77.2196V102.119C116.671 106.905 117.447 110.268 118.999 112.143C120.551 114.019 127.471 114.989 127.471 114.989V123.59H78.7073V114.989H79.4187C84.3339 114.989 87.5029 114.019 88.9904 112.078C90.4778 110.138 91.1892 106.84 91.1892 102.119V39.9678C91.1892 35.182 90.4132 31.819 88.861 29.9434C87.3088 28.0679 84.1399 27.0978 79.4187 27.0978H77.4785V18.3022H116.735H125.466C134.197 18.3022 140.535 18.6256 144.545 19.2077C148.554 19.8544 152.5 21.3419 156.445 23.6701C160.325 25.9984 163.429 29.232 165.628 33.3064C167.892 37.3809 168.991 41.7786 168.991 46.4998C168.991 58.9817 162.395 67.5833 149.201 72.1751C152.694 74.568 158.191 82.0054 165.564 94.4874C171.319 104.124 175.459 109.944 177.916 111.949C180.374 113.954 183.09 114.924 186 114.924V123.526H155.41C152.629 119.969 147.455 110.914 139.888 96.4276C136.072 89.1195 133.421 84.3337 131.869 82.2641C130.317 80.1299 128.764 78.7718 127.148 78.1897C125.531 77.6076 122.038 77.2843 116.671 77.2196ZM116.671 67.7773C124.819 67.9066 130.317 67.3246 133.098 66.1605C135.943 64.9963 138.142 62.9268 139.824 59.8872C141.44 56.8475 142.281 52.7731 142.281 47.5992C142.281 40.2265 140.664 35.1173 137.431 32.2717C134.197 29.4261 128.57 28.0032 120.68 28.0032C119.645 28.0032 118.352 28.0032 116.735 28.0679V67.7773H116.671Z" fill="white"/>
<path d="M215.103 18.3022C223.381 18.3022 233.147 21.2772 237.868 30.2668C240.067 34.4059 241.296 38.545 241.296 46.8232C241.296 59.1111 239.097 63.0561 230.948 68.23C234.182 69.8468 237.739 72.3691 239.679 77.6723C240.843 81.1 241.296 83.8809 241.296 92.6118C241.296 102.83 239.938 108.457 236.704 113.307C231.854 120.68 222.67 123.526 213.81 123.526H192.532L192.662 18.3022H215.103ZM207.536 61.504H213.422C222.153 61.504 227.003 58.9817 227.003 46.6938C227.003 40.8085 226.098 32.5304 213.68 32.5304H207.472V61.504H207.536ZM207.536 108.521H213.292C226.033 108.521 227.068 101.989 227.068 90.801C227.068 78.2544 223.963 74.8267 213.292 74.8267H207.536V108.521Z" fill="#ADB786"/>
<path d="M282.946 18.3022L306.422 123.526H291.353L286.891 100.89H266.325L261.862 123.526H246.793L270.334 18.3022H282.946ZM269.041 86.7912H284.11L276.737 48.634H276.414L269.041 86.7912Z" fill="#ADB786"/>
<path d="M328.54 18.3022L351.305 81.6821H351.629V18.3022H366.697V123.526H352.469L329.381 60.2752H329.058V123.526H313.989V18.3022H328.54Z" fill="#ADB786"/>
<path d="M52.3206 190.268V187.487C52.3206 177.851 47.8582 174.165 41.6495 174.165C34.9882 174.165 31.4311 178.433 31.4311 187.94C31.4311 197.706 33.1773 199.193 41.7789 202.556C45.2065 203.915 49.7337 205.661 52.2559 206.695C65.5786 212.193 67.3248 220.859 67.3248 235.087C67.3248 256.365 58.0119 266.13 41.3261 266.13C30.8491 266.13 15.5862 259.469 15.5862 240.261V235.54H30.6551V240.39C30.6551 245.564 33.63 251.061 41.3261 251.061C46.5 251.061 50.057 249.703 51.5445 244.529C52.2559 241.878 52.2559 238.644 52.2559 235.346C52.2559 225.903 51.3505 222.928 45.5946 220.277C41.5848 218.531 35.3762 216.267 30.073 213.745C20.3073 209.153 16.2976 201.328 16.2976 187.876C16.2976 170.608 25.9339 159.031 42.1669 159.031C47.6641 159.031 53.226 160.648 57.5591 164.076C65.3846 170.284 67.3248 177.204 67.3248 183.413V190.204H52.3206V190.268Z" fill="#ADB786"/>
<path d="M93.7117 159.937V240.326C93.7117 246.987 97.5274 250.997 103.025 250.997C108.651 250.997 112.338 246.987 112.338 240.326V159.937H127.406V241.943C127.406 255.265 116.347 266.001 103.025 266.001C90.0253 266.001 78.6428 255.201 78.6428 241.749V159.937H93.7117Z" fill="#ADB786"/>
<path d="M156.703 159.937V250.092H186.582V265.16H141.635V159.937H156.703Z" fill="#ADB786"/>
<path d="M236.187 159.937V171.902L207.213 250.997H236.187V265.16H191.433V251.838L219.824 174.1H192.92V159.937H236.187Z" fill="#ADB786"/>
<path d="M247.828 265.225V256.753H251.644C254.813 256.753 257.141 256.236 258.693 255.136C260.245 254.037 261.021 251.514 261.021 247.505V189.557C261.021 184.06 260.31 180.632 258.823 179.339C257.335 178.046 253.196 177.334 246.341 177.334V169.185C259.663 168.603 270.14 165.564 277.772 159.937H285.856V247.052C285.856 250.544 286.438 253.067 287.537 254.554C288.702 256.041 291.159 256.753 294.975 256.753H298.791V265.225H247.828Z" fill="white"/>
<path d="M311.337 212.193L313.083 159.937H366.633C364.24 165.822 362.364 170.026 360.942 172.419C359.519 174.812 358.419 176.041 357.708 176.041C356.932 176.041 353.31 176.105 349.495 176.105H321.038L320.327 200.811C325.501 196.607 331.645 194.473 338.823 194.473C347.748 194.473 355.703 197.512 362.688 203.527C369.737 209.541 373.23 217.949 373.23 228.685C373.23 240.649 368.961 250.092 360.424 256.882C351.887 263.673 341.734 267.101 330.028 267.101C321.879 267.101 315.153 265.548 309.785 262.379C304.417 259.21 301.766 255.33 301.766 250.674C301.766 248.216 302.736 246.082 304.611 244.336C306.487 242.589 308.686 241.684 311.143 241.684C315.024 241.684 318.322 244.336 321.038 249.704C323.884 255.33 327.7 258.111 332.615 258.111C337.336 258.111 340.893 256.106 343.286 252.032C345.679 248.022 346.843 240.197 346.843 228.685C346.843 219.695 345.743 213.357 343.545 209.671C341.346 205.984 337.789 204.174 332.873 204.174C327.7 204.174 323.69 206.825 320.909 212.193H311.337Z" fill="white"/>
<path d="M127.406 128.635H78.6428V139.306H127.406V128.635Z" fill="#ADB786"/>
<path d="M127.406 144.286H78.6428V154.957H127.406V144.286Z" fill="#ADB786"/>
</svg>
