<svg width="51" height="51" viewBox="0 0 51 51" fill="none" xmlns="http://www.w3.org/2000/svg">
<path d="M31.8751 16.8299L21.6751 7.6499L11.4751 16.8299V28.3049C11.4751 28.9136 11.69 29.4973 12.0726 29.9277C12.4552 30.3581 12.9741 30.5999 13.5151 30.5999H19.6351V23.7149H23.7151V30.5999H29.8351C30.3761 30.5999 30.895 30.3581 31.2776 29.9277C31.6602 29.4973 31.8751 28.9136 31.8751 28.3049V16.8299Z" fill="#A6CF4C"/>
<path d="M50.404 47.4017L37.7303 34.728C41.184 30.504 42.8821 25.1141 42.4733 19.6732C42.0645 14.2323 39.5801 9.15662 35.5339 5.49611C31.4878 1.83559 26.1895 -0.129729 20.735 0.0066513C15.2804 0.143032 10.087 2.37068 6.22883 6.22883C2.37068 10.087 0.143032 15.2804 0.0066513 20.735C-0.129729 26.1895 1.83559 31.4878 5.49611 35.5339C9.15662 39.5801 14.2323 42.0645 19.6732 42.4733C25.1141 42.8821 30.504 41.184 34.728 37.7303L47.4017 50.404C47.8021 50.7908 48.3385 51.0048 48.8952 50.9999C49.4519 50.9951 49.9844 50.7718 50.3781 50.3781C50.7718 49.9844 50.9951 49.4519 50.9999 48.8952C51.0048 48.3385 50.7908 47.8021 50.404 47.4017ZM4.31447 21.3005C4.31447 17.941 5.31069 14.6569 7.17714 11.8636C9.04359 9.07024 11.6964 6.89309 14.8002 5.60746C17.904 4.32182 21.3194 3.98544 24.6143 4.64085C27.9093 5.29626 30.9359 6.91403 33.3115 9.28957C35.687 11.6651 37.3048 14.6917 37.9602 17.9867C38.6156 21.2817 38.2792 24.697 36.9936 27.8008C35.7079 30.9046 33.5308 33.5574 30.7375 35.4239C27.9441 37.2903 24.66 38.2866 21.3005 38.2866C16.7971 38.2815 12.4796 36.4903 9.29516 33.3059C6.11075 30.1215 4.31953 25.8039 4.31447 21.3005Z" fill="#A6CF4C"/>
</svg>
